<svg class="svg-icon" style="width: 1em;height: 1em;vertical-align: middle;fill: #454753 ;overflow: hidden;" viewBox="0 0 1024 1024" version="1.1" xmlns="http://www.w3.org/2000/svg"><path d="M507.733333 853.333333h-83.2l17.066667-68.266666c-34.133333-8.533333-68.266667-21.333333-100.266667-38.4-32-19.2-59.733333-38.4-81.066666-59.733334-21.333333-21.333333-42.666667-44.8-59.733334-68.266666-17.066667-23.466667-29.866667-44.8-38.4-61.866667-8.533333-19.2-12.8-32-12.8-42.666667 0-8.533333 2.133333-19.2 8.533334-32 4.266667-12.8 12.8-29.866667 23.466666-46.933333 10.666667-17.066667 23.466667-36.266667 38.4-53.333333s32-36.266667 53.333334-53.333334 42.666667-34.133333 66.133333-46.933333c23.466667-12.8 49.066667-25.6 78.933333-34.133333 29.866667-8.533333 59.733333-12.8 91.733334-12.8 23.466667 0 46.933333 2.133333 72.533333 8.533333l19.2-68.266667h83.2l-177.066667 678.4z m200.533334-437.333333l27.733333-102.4c40.533333 32 74.666667 68.266667 100.266667 108.8 25.6 40.533333 38.4 70.4 38.4 89.6 0 10.666667-4.266667 23.466667-10.666667 40.533333-6.4 17.066667-19.2 36.266667-34.133333 57.6s-32 42.666667-53.333334 64-44.8 40.533333-72.533333 59.733334-59.733333 34.133333-89.6 42.666666l25.6-98.133333c29.866667-19.2 55.466667-40.533333 76.8-66.133333 21.333333-25.6 40.533333-51.2 55.466667-74.666667 4.266667-6.4 6.4-14.933333 4.266666-23.466667 0-8.533333-4.266667-17.066667-8.533333-23.466666-19.2-27.733333-40.533333-53.333333-59.733333-74.666667z m-360.533334-32c-25.6 25.6-57.6 61.866667-91.733333 104.533333-4.266667 6.4-8.533333 12.8-8.533333 23.466667s0 17.066667 4.266666 23.466667c6.4 10.666667 14.933333 23.466667 21.333334 34.133333 8.533333 10.666667 19.2 25.6 32 40.533333s27.733333 29.866667 42.666666 40.533334c14.933333 12.8 32 23.466667 51.2 34.133333s40.533333 19.2 59.733334 23.466667l23.466666-87.466667c-40.533333-6.4-74.666667-25.6-102.4-57.6s-40.533333-68.266667-40.533333-110.933333c0-21.333333 4.266667-44.8 12.8-64 2.133333-6.4 4.266667-10.666667 2.133333-12.8 2.133333 0-2.133333 2.133333-6.4 8.533333z m76.8 55.466667l-19.2 21.333333c-6.4 6.4-8.533333 12.8-10.666666 21.333333-2.133333 8.533333 0 17.066667 2.133333 23.466667 14.933333 25.6 32 46.933333 53.333333 66.133333 6.4 4.266667 12.8 6.4 21.333334 6.4s14.933333-4.266667 21.333333-10.666666l6.4-6.4 12.8-49.066667-2.133333-2.133333c-17.066667-17.066667-34.133333-38.4-51.2-66.133334-4.266667-6.4-8.533333-10.666667-14.933334-10.666666-6.4-2.133333-12.8 2.133333-19.2 6.4z"  /></svg>