<svg width="20" height="31" viewBox="0 0 33 44" fill="none" xmlns="http://www.w3.org/2000/svg">
<path d="M15.6465 0.225266C15.8358 0.414535 16.0622 0.575936 16.2097 0.791912C16.8007 1.66046 16.8994 2.59403 16.4767 3.56128C16.3931 3.75287 16.4849 3.79584 16.6172 3.80861C16.9609 3.84112 17.2524 3.72617 17.4765 3.45562C17.8562 2.99696 17.7575 2.47908 17.617 1.98326C17.43 1.32372 17.0515 0.7803 16.4361 0.443564C16.1644 0.294935 15.9054 0.0998601 15.5652 0.0836039C15.5524 0.171852 15.6128 0.190431 15.6465 0.224104V0.225266Z" fill="#E42F16"/>
<path d="M6.50462 16.3979C6.36063 16.8624 6.26774 17.3443 6.18762 17.825C6.04131 18.697 5.9519 19.5772 5.92404 20.4608C5.88688 21.6533 5.92636 22.8412 6.13537 24.0209C6.30722 24.9917 6.51042 25.9531 6.85529 26.9087C6.88548 26.8286 6.91567 26.7717 6.92728 26.7102C7.0434 26.111 7.22221 25.5281 7.41381 24.9499C7.53921 24.5737 7.65184 24.1835 7.84227 23.841C8.13373 23.3173 8.47162 22.8203 8.88151 22.3733C9.16484 22.0644 9.447 21.7427 9.77445 21.4966C10.4653 20.9775 11.1481 20.4399 11.9087 20.0184C12.3046 19.799 12.6924 19.5609 13.0745 19.3159C13.7596 18.877 14.4028 18.3916 14.793 17.6462C14.9973 17.2572 15.1378 16.8508 15.2215 16.4177C15.3538 15.7303 15.3724 15.0382 15.3678 14.3427C15.3666 14.1487 15.4351 14.1255 15.5919 14.2068C15.8868 14.3601 16.1806 14.5157 16.4465 14.7177C17.2755 15.3482 17.8468 16.1494 18.1035 17.1713C18.2265 17.6601 18.3009 18.1559 18.3763 18.6517C18.3845 18.7063 18.3612 18.7887 18.4286 18.8073C18.5041 18.8282 18.5377 18.7481 18.5807 18.7005C18.7433 18.5194 18.9151 18.344 19.0626 18.1513C19.3053 17.8343 19.5758 17.5277 19.7569 17.1771C20.0147 16.6778 20.1796 16.139 20.2551 15.5723C20.3399 14.9337 20.3166 14.309 20.1529 13.6901C19.9683 12.9934 19.5909 12.3873 19.2089 11.7858C19.0521 11.5385 18.8779 11.3027 18.7177 11.0577C18.6457 10.9474 18.6724 10.8685 18.8199 10.8836C19.3877 10.9439 19.9509 10.9765 20.5024 11.1971C21.1318 11.449 21.6241 11.8485 22.0688 12.3269C22.6854 12.9911 23.0349 13.8155 23.3264 14.6492C23.5667 15.3366 23.677 16.067 23.6573 16.8055C23.6376 17.5196 23.5748 18.2209 23.3763 18.9188C23.2393 19.4007 23.0918 19.8802 22.9594 20.3644C22.8329 20.8254 22.6366 21.2667 22.4741 21.7184C22.4439 21.8031 22.3649 21.9007 22.4694 21.9819C22.6796 22.1457 22.8329 22.3628 23.0268 22.5405C23.9325 23.3684 24.6338 24.3228 24.9497 25.5328C25.2016 26.4954 25.1761 27.4858 25.2585 28.4647C25.2632 28.5181 25.2214 28.5994 25.298 28.618C25.3746 28.6366 25.3805 28.5495 25.4037 28.5007C25.7822 27.7158 26.1155 26.9134 26.3767 26.082C26.7379 24.9313 27.0189 23.7655 27.1385 22.5602C27.2128 21.8066 27.2836 21.0542 27.2952 20.2971C27.3033 19.8129 27.2697 19.331 27.2232 18.848C27.193 18.5275 27.1814 18.2024 27.1385 17.883C26.9968 16.831 26.7669 15.8011 26.4719 14.7781C26.2084 13.8608 25.8287 12.9946 25.4478 12.1283C25.1134 11.3654 24.7035 10.6351 24.2309 9.94535C23.821 9.34619 23.4402 8.71916 22.9362 8.19548C22.6506 7.89822 22.4439 7.55568 22.2662 7.20617C21.8598 6.40613 21.544 5.56661 21.4197 4.66438C21.3257 3.98046 21.3094 3.29538 21.3768 2.61145C21.4662 1.7011 21.7135 0.83023 22.106 0.00348377H21.9283L21.4139 0.366927C21.0633 0.595676 20.7184 0.826747 20.3875 1.09033C19.9625 1.42939 19.6176 1.8358 19.3006 2.25381C18.8849 2.80304 18.5993 3.4382 18.3903 4.10238C18.0988 5.03015 18.0024 5.97534 18.1185 6.94026C18.1418 7.13417 18.1731 7.32693 18.2056 7.54639C18.0675 7.47788 18.0373 7.36176 17.985 7.27235C17.9537 7.21778 17.92 7.16553 17.8852 7.11443C17.8294 6.97277 17.6611 6.76376 17.2953 6.45954C17.2198 6.39451 17.142 6.33297 17.0619 6.27375C16.9179 6.16344 16.7751 6.06707 16.6334 5.98463C16.5556 5.93702 16.4767 5.88941 16.3965 5.84412C16.3606 5.82322 16.3234 5.80813 16.2909 5.80581C15.0775 5.24613 14.08 5.56545 14.08 5.56545C13.9639 5.58867 13.849 5.6177 13.734 5.64789C13.5041 5.70827 13.5041 5.75007 13.698 5.90218C14.0289 6.15996 14.3308 6.44793 14.6107 6.76028C15.1111 7.3188 15.4293 7.97602 15.6371 8.68549C15.8914 9.5552 15.8914 10.4377 15.665 11.312C15.5187 11.8764 15.2842 12.3919 14.9045 12.8599C14.44 13.4312 13.3322 13.6599 12.6855 13.2605C12.192 12.9562 11.8413 12.5672 11.7182 11.9762C11.5696 11.2609 11.5162 10.5491 11.6277 9.82575C11.7275 9.17782 11.9226 8.56589 12.257 7.99343C12.3685 7.803 12.5821 7.67411 12.6193 7.41982C12.4939 7.46511 12.3952 7.5371 12.3035 7.61606C11.5928 8.08981 9.80812 9.45301 8.29048 12.0389C8.08728 12.3559 7.91543 12.688 7.75635 13.0271C7.27215 14.0024 6.83671 15.1206 6.50229 16.3968C6.50229 16.3991 6.50113 16.4014 6.49997 16.4026L6.50462 16.3979Z" fill="#E42F16"/>
<path d="M31.1669 32.4568C30.3494 33.8002 29.244 34.865 27.9226 35.708C26.6035 36.5487 25.166 37.0596 23.6135 37.2315C24.6458 36.7264 25.6038 36.1133 26.4921 35.391C27.8437 34.2914 28.9595 32.9886 29.835 31.4814C30.1799 30.888 30.4818 30.275 30.7408 29.641C31.081 28.8061 31.3341 27.9422 31.5071 27.0597C31.8241 25.4445 31.8799 23.8189 31.6267 22.1875C31.557 21.7369 31.4688 21.2911 31.3608 20.8521C31.3271 20.6989 31.2819 20.5317 31.225 20.3447C31.2226 20.3377 31.2203 20.3308 31.218 20.3226C31.0624 19.7908 30.872 19.2683 30.6386 18.7574C30.2891 17.9922 29.9361 17.234 29.4217 16.5582C29.1175 16.1599 28.7981 15.7767 28.4626 15.4109C28.1897 15.1032 28.0143 14.943 28.0143 14.943C27.4454 14.3729 26.8323 13.8468 26.1681 13.3696C28.0352 16.2365 28.833 19.3566 28.437 22.7646C28.0399 26.1842 26.5025 29.0116 24.0141 31.3525C23.9805 31.255 23.9816 31.169 23.9793 31.0843C23.9642 30.4282 23.9828 29.7675 23.9224 29.115C23.862 28.4543 23.8133 27.7947 23.6913 27.1352C23.523 26.2248 23.2106 25.3818 22.7647 24.5876C22.6033 24.2996 22.356 24.0476 22.118 23.8026C21.5176 23.1872 20.85 22.6531 20.1556 22.1491C20.1417 22.1387 20.1289 22.1294 20.1161 22.1201C20.3739 21.9808 20.6236 21.831 20.8616 21.6638C21.5827 21.1575 22.154 20.5409 22.5 19.7781C22.6811 19.3786 22.7705 18.9374 22.889 18.5101C22.9285 18.3661 22.9296 18.2093 22.9517 18.0293C22.7287 18.3742 22.5395 18.7005 22.3154 19.0047C22.1609 19.2149 21.9937 19.41 21.8137 19.5923C21.9624 19.3008 22.1633 19.0291 22.2829 18.7179C22.6428 17.7774 22.8007 16.8043 22.7195 15.7988C22.6591 15.0521 22.4361 14.3531 22.0146 13.7307C21.5467 13.0387 20.8906 12.5475 20.18 12.0575C20.2218 12.1875 20.2682 12.263 20.3263 12.3385C20.6897 12.8088 21.0497 13.2872 21.2692 13.8445C21.5258 14.4959 21.4933 15.1648 21.3539 15.8429C21.2448 16.3735 21.0625 16.8798 20.8151 17.3501C20.8186 17.3234 20.8221 17.2967 20.8244 17.2699C20.843 17.0702 20.8326 16.8647 20.836 16.6615C20.8186 16.658 20.8012 16.6534 20.7838 16.6499C20.7641 16.6929 20.7478 16.737 20.7246 16.7776C20.4865 17.191 20.2752 17.6206 20.0047 18.0143C19.4763 18.7806 18.7402 19.3658 17.8043 19.7688C17.6359 19.8408 17.4617 19.9035 17.2864 19.9615C17.3317 19.8419 17.37 19.7188 17.3979 19.5911C17.5639 18.8259 17.5 18.0828 17.2841 17.3396C17.1308 16.8125 16.8393 16.3619 16.5316 15.9207C16.3482 15.6583 16.138 15.4156 15.8988 15.1125C15.9963 15.6861 16.0834 16.1912 16.1682 16.6963C16.3029 17.4975 16.1589 18.2337 15.6236 18.8607C15.4157 19.1046 15.2416 19.3879 14.9757 19.5714C14.3637 19.9929 13.7576 20.4225 13.1294 20.8219C12.6359 21.1355 12.1599 21.478 11.6954 21.8345C11.2483 22.177 10.8094 22.5242 10.4262 22.9353C9.68658 23.4706 9.13387 24.1359 8.83661 24.9777C8.73907 25.2564 8.68566 25.527 8.85751 25.8358C8.88886 25.8927 8.91325 25.952 8.93647 26.0112C9.0224 26.2248 9.13735 26.4083 9.00614 26.6417C8.54167 27.4684 8.25487 28.3672 8.22932 29.3507C8.22352 29.5539 8.23861 29.7617 8.24442 29.9731C8.63805 29.6201 8.99685 29.2694 9.39164 28.9501C10.0036 28.4554 10.6875 28.0351 11.5212 27.8086C11.9868 27.6821 12.4885 27.6194 12.975 27.5335C13.5765 27.4266 14.0943 27.2141 14.5158 26.8786C14.5321 26.4756 14.6505 26.0715 14.8375 25.6953C15.1487 25.5095 15.4785 25.3818 15.8674 25.4294C16.2402 25.4759 16.5816 25.6268 16.9067 25.8126C17.5337 26.1714 17.8809 26.7264 17.9854 27.4208C18.098 28.1674 17.9134 28.8758 17.6138 29.5608C17.3259 30.2192 16.9404 30.8149 16.5061 31.3827C16.2866 31.6707 15.9987 31.8866 15.7281 32.1235C15.0906 32.682 14.3394 32.9747 13.5173 33.0455C12.6429 33.1221 11.7894 32.9561 10.9569 32.6762C9.91997 32.329 8.99917 31.8054 8.23513 31.0076C7.72422 30.4747 7.21331 29.9475 6.77206 29.3507C6.30644 28.7202 5.90352 28.0583 5.55981 27.3581C4.9862 26.1911 4.55192 24.9766 4.36033 23.6842C4.28254 23.1605 4.19313 22.6403 4.18035 22.1062C4.15016 20.8336 4.18732 19.5702 4.53915 18.3371C4.65643 17.926 4.71681 17.5033 4.87241 17.0993C5.12322 16.4467 5.44021 15.8255 5.71889 15.1868C5.88958 14.7955 6.18103 14.4599 6.40514 14.0907C6.61415 13.747 6.84173 13.4207 7.12622 13.1339C7.21331 13.0456 7.26672 12.9237 7.33639 12.8146C7.27485 12.7855 7.24814 12.8181 7.21911 12.8366C6.95901 12.9992 6.71285 13.1792 6.47132 13.3673C6.47132 13.3673 1.81507 16.4188 1.22055 21.2922V21.2945C1.02432 22.1851 0.916329 23.0909 0.908201 24.0163C0.900073 24.929 0.92794 25.844 1.10095 26.7381C1.26932 27.6078 1.46324 28.4775 1.8081 29.3031C2.05775 29.8999 2.26211 30.5188 2.59769 31.0762C3.12021 31.9435 3.66015 32.8005 4.32201 33.5727C4.84105 34.1765 5.41002 34.7326 6.01731 35.2436C6.57467 35.7127 7.1506 36.1609 7.7904 36.5162C8.09579 36.6857 8.36053 36.9226 8.69146 37.048C8.74836 37.0701 8.80061 37.1061 8.85519 37.1351C8.84474 37.1606 8.83429 37.1862 8.825 37.2117C7.39793 37.0283 6.07769 36.5174 4.8515 35.7684C3.58468 34.9962 2.55473 33.9663 1.69895 32.7517C0.850143 31.5487 0.34736 30.2076 0.00830078 28.7898C0.240533 30.3771 0.621394 31.9203 1.30183 33.3845C2.78812 36.5812 5.05935 39.0777 8.08882 40.8531C10.3333 42.1687 12.795 42.8794 15.389 43.0384C18.314 43.2173 21.124 42.6692 23.7239 41.3118C29.0652 38.525 32.0029 34.0592 32.7716 28.1256C32.5533 29.6793 31.9913 31.1156 31.175 32.4545L31.1669 32.4568ZM16.7906 21.0577C16.8463 21.0519 16.902 21.0449 16.9578 21.0391C16.909 21.0669 16.8602 21.0937 16.8103 21.118C16.7964 21.0948 16.7906 21.0751 16.7906 21.0577ZM11.6582 26.1923C11.2959 26.2643 10.9337 26.3375 10.5702 26.4106C10.5575 26.4269 10.5447 26.4431 10.5319 26.4594C10.5284 26.4466 10.5238 26.4327 10.5203 26.4199C10.5365 26.4164 10.554 26.4129 10.5702 26.4094C10.5737 26.4048 10.5784 26.4002 10.5818 26.3944C10.7235 26.2109 10.8652 26.0263 11.008 25.8428C11.2855 25.4875 11.6698 25.232 12.1076 25.0346C12.3898 24.9069 12.6801 24.7896 12.9703 24.6724C12.8229 24.9139 12.6673 25.1519 12.507 25.3865C12.5535 25.3946 12.5976 25.4074 12.6394 25.4248C12.5663 25.5258 12.4931 25.628 12.4176 25.7278C12.2388 25.9647 11.9915 26.125 11.6571 26.1911L11.6582 26.1923Z" fill="#E42F16"/>
</svg>
